REM DIRINDEX 1\2\6,1\2\7,1\2\8,1\3\9,1\3\10,1\3\11,1\4\12,1\4\13,1\4\14,1\5\15,1\5\16,1\5\17,1\5\18
REM DIRNAME folder01,folder02,folder03,folder04,folder05,folder06,folder07,folder08,folder09,folder10,folder11,folder12,folder13,folder14,folder15,folder16,folder17,folder18
TITLE ""
FILE "2Q_t_0672-0689.mp3" MP3
  TRACK 01 AUDIO
    TITLE "13:cjc019_3403"
    INDEX 01 00:00:00
  TRACK 02 AUDIO
    TITLE "0:"
    INDEX 01 00:01:32
  TRACK 03 AUDIO
    TITLE "14:cjc019_3404"
    INDEX 01 00:02:08
  TRACK 04 AUDIO
    TITLE "0:"
    INDEX 01 00:03:17
  TRACK 05 AUDIO
    TITLE "13:cjc019_3405"
    INDEX 01 00:03:74
  TRACK 06 AUDIO
    TITLE "0:"
    INDEX 01 00:05:20
  TRACK 07 AUDIO
    TITLE "14:cjc019_3406"
    INDEX 01 00:06:00
  TRACK 08 AUDIO
    TITLE "0:"
    INDEX 01 00:09:63
  TRACK 09 AUDIO
    TITLE "13:cjc019_3407"
    INDEX 01 00:10:35
  TRACK 10 AUDIO
    TITLE "0:"
    INDEX 01 00:11:56
  TRACK 11 AUDIO
    TITLE "14:cjc019_3408"
    INDEX 01 00:12:38
  TRACK 12 AUDIO
    TITLE "0:"
    INDEX 01 00:13:35
  TRACK 13 AUDIO
    TITLE "13:cjc019_3409"
    INDEX 01 00:14:09
  TRACK 14 AUDIO
    TITLE "0:"
    INDEX 01 00:15:19
  TRACK 15 AUDIO
    TITLE "14:cjc019_3410"
    INDEX 01 00:16:02
  TRACK 16 AUDIO
    TITLE "0:"
    INDEX 01 00:19:22
  TRACK 17 AUDIO
    TITLE "13:cjc019_3411"
    INDEX 01 00:20:02
  TRACK 18 AUDIO
    TITLE "0:"
    INDEX 01 00:21:06
  TRACK 19 AUDIO
    TITLE "14:cjc019_3412"
    INDEX 01 00:21:64
  TRACK 20 AUDIO
    TITLE "0:"
    INDEX 01 00:24:33
  TRACK 21 AUDIO
    TITLE "13:cjc019_3413"
    INDEX 01 00:25:09
  TRACK 22 AUDIO
    TITLE "0:"
    INDEX 01 00:26:15
  TRACK 23 AUDIO
    TITLE "14:cjc019_3414"
    INDEX 01 00:26:64
  TRACK 24 AUDIO
    TITLE "0:"
    INDEX 01 00:29:09
  TRACK 25 AUDIO
    TITLE "13:cjc019_3415"
    INDEX 01 00:29:62
  TRACK 26 AUDIO
    TITLE "0:"
    INDEX 01 00:31:18
  TRACK 27 AUDIO
    TITLE "14:cjc019_3416"
    INDEX 01 00:32:00
  TRACK 28 AUDIO
    TITLE "0:"
    INDEX 01 00:34:73
  TRACK 29 AUDIO
    TITLE "13:cjc019_3417"
    INDEX 01 00:35:49
  TRACK 30 AUDIO
    TITLE "0:"
    INDEX 01 00:36:58
  TRACK 31 AUDIO
    TITLE "14:cjc019_3418"
    INDEX 01 00:37:38
  TRACK 32 AUDIO
    TITLE "0:"
    INDEX 01 00:40:50
  TRACK 33 AUDIO
    TITLE "13:cjc019_3419"
    INDEX 01 00:41:26
  TRACK 34 AUDIO
    TITLE "0:"
    INDEX 01 00:42:39
  TRACK 35 AUDIO
    TITLE "14:cjc019_3420"
    INDEX 01 00:43:19
  TRACK 36 AUDIO
    TITLE "0:"
    INDEX 01 00:47:38
  TRACK 37 AUDIO
    TITLE "13:cjc019_3421"
    INDEX 01 00:48:16
  TRACK 38 AUDIO
    TITLE "0:"
    INDEX 01 00:49:08
  TRACK 39 AUDIO
    TITLE "14:cjc019_3422"
    INDEX 01 00:49:72
  TRACK 40 AUDIO
    TITLE "0:"
    INDEX 01 00:51:03
  TRACK 41 AUDIO
    TITLE "13:cjc019_3423"
    INDEX 01 00:51:50
  TRACK 42 AUDIO
    TITLE "0:"
    INDEX 01 00:53:00
  TRACK 43 AUDIO
    TITLE "14:cjc019_3424"
    INDEX 01 00:53:57
  TRACK 44 AUDIO
    TITLE "0:"
    INDEX 01 00:54:50
  TRACK 45 AUDIO
    TITLE "13:cjc019_3425"
    INDEX 01 00:55:32
  TRACK 46 AUDIO
    TITLE "0:"
    INDEX 01 00:56:74
  TRACK 47 AUDIO
    TITLE "14:cjc019_3426"
    INDEX 01 00:57:54
  TRACK 48 AUDIO
    TITLE "0:"
    INDEX 01 00:59:22
  TRACK 49 AUDIO
    TITLE "13:cjc019_3427"
    INDEX 01 01:00:04
  TRACK 50 AUDIO
    TITLE "0:"
    INDEX 01 01:01:46
  TRACK 51 AUDIO
    TITLE "14:cjc019_3428"
    INDEX 01 01:02:24
  TRACK 52 AUDIO
    TITLE "0:"
    INDEX 01 01:03:51
  TRACK 53 AUDIO
    TITLE "13:cjc019_3429"
    INDEX 01 01:04:29
  TRACK 54 AUDIO
    TITLE "0:"
    INDEX 01 01:05:62
  TRACK 55 AUDIO
    TITLE "14:cjc019_3430"
    INDEX 01 01:06:43
  TRACK 56 AUDIO
    TITLE "0:"
    INDEX 01 01:09:46
  TRACK 57 AUDIO
    TITLE "13:cjc019_3431"
    INDEX 01 01:10:24
  TRACK 58 AUDIO
    TITLE "0:"
    INDEX 01 01:11:39
  TRACK 59 AUDIO
    TITLE "14:cjc019_3432"
    INDEX 01 01:12:23
  TRACK 60 AUDIO
    TITLE "0:"
    INDEX 01 01:13:28
  TRACK 61 AUDIO
    TITLE "13:cjc019_3433"
    INDEX 01 01:14:10
  TRACK 62 AUDIO
    TITLE "0:"
    INDEX 01 01:15:27
  TRACK 63 AUDIO
    TITLE "14:cjc019_3434"
    INDEX 01 01:16:14
  TRACK 64 AUDIO
    TITLE "0:"
    INDEX 01 01:18:62
  TRACK 65 AUDIO
    TITLE "13:cjc019_3435"
    INDEX 01 01:19:40
  TRACK 66 AUDIO
    TITLE "0:"
    INDEX 01 01:20:40
  TRACK 67 AUDIO
    TITLE "14:cjc019_3436"
    INDEX 01 01:21:21
  TRACK 68 AUDIO
    TITLE "0:"
    INDEX 01 01:25:23
  TRACK 69 AUDIO
    TITLE "13:cjc019_3437"
    INDEX 01 01:25:74
  TRACK 70 AUDIO
    TITLE "0:"
    INDEX 01 01:27:20
  TRACK 71 AUDIO
    TITLE "14:cjc019_3438"
    INDEX 01 01:28:00
  TRACK 72 AUDIO
    TITLE "0:"
    INDEX 01 01:29:13
